<?xml version="1.0" encoding="UTF-8"?><svg id="Layer_1" xmlns="http://www.w3.org/2000/svg" viewBox="0 0 627.3 207.75"><defs><style>.cls-1{fill:#1c2640;stroke-width:0px;}</style></defs><path class="cls-1" d="m185.37,207.75l-53.73-83.9c29.61-4.86,52.22-30.49,52.22-61.48C183.86,27.93,155.93,0,121.48,0H0l23.16,36.17h95.52c15,0,27.16,12.16,27.16,27.16s-12.16,27.16-27.16,27.16h-60.73l21.93,34.25h.05l51.82,83h53.6Z"/><polygon class="cls-1" points="276.82 165.5 276.82 123.25 374.82 123.25 374.82 80.99 276.82 80.99 276.82 42.25 380.56 42.25 380.56 0 227.03 0 227.03 146.58 267.08 207.75 386.31 207.75 386.31 165.5 276.82 165.5"/><path class="cls-1" d="m403.87,0h56.82l55.86,136.16h.64L574,0h53.3l-93.2,207.75h-39.9L403.87,0Z"/><polygon class="cls-1" points="28.66 165.5 0 121.98 0 207.75 54.88 207.75 54.88 207.5 28.66 165.5"/></svg>